<?xml version="1.0" encoding="UTF-8"?>
<!DOCTYPE svg  PUBLIC '-//W3C//DTD SVG 1.1 Basic//EN'  'http://www.w3.org/Graphics/SVG/1.1/DTD/svg11-basic.dtd'>
<svg baseProfile="basic" version="1.1" viewBox="0 0 173 55" xml:space="preserve" xmlns="http://www.w3.org/2000/svg">

	<path d="m84.23 16.115c-0.674 0-1.263-0.113-1.763-0.339-0.501-0.227-0.915-0.527-1.241-0.903-0.328-0.376-0.572-0.807-0.73-1.293-0.159-0.486-0.238-0.99-0.238-1.51v-6.443h1.43v6.357c0 0.346 0.043 0.691 0.131 1.032 0.086 0.342 0.228 0.648 0.425 0.918 0.198 0.269 0.458 0.486 0.78 0.65s0.725 0.245 1.207 0.245c0.472 0 0.873-0.081 1.199-0.245 0.327-0.164 0.59-0.381 0.788-0.65 0.197-0.27 0.339-0.576 0.427-0.918 0.086-0.341 0.129-0.686 0.129-1.032v-6.357h1.432v6.443c0 0.52-0.08 1.024-0.238 1.51-0.16 0.486-0.404 0.917-0.73 1.293-0.327 0.376-0.741 0.676-1.241 0.903-0.507 0.226-1.093 0.339-1.767 0.339" fill="#1B171B"/>


	<path d="m91.77 9.008c0.021 0.173 0.033 0.369 0.043 0.585 0.011 0.217 0.017 0.398 0.017 0.542h0.041c0.088-0.183 0.205-0.354 0.354-0.513 0.148-0.159 0.318-0.299 0.512-0.419 0.195-0.12 0.406-0.214 0.638-0.281 0.229-0.068 0.472-0.102 0.724-0.102 0.44 0 0.821 0.075 1.139 0.224s0.584 0.349 0.797 0.6c0.211 0.25 0.367 0.544 0.469 0.881s0.15 0.698 0.15 1.083v4.248h-1.357v-3.8c0-0.279-0.021-0.544-0.064-0.794s-0.123-0.472-0.237-0.665c-0.115-0.192-0.272-0.347-0.478-0.462-0.203-0.116-0.461-0.173-0.779-0.173-0.541 0-0.979 0.204-1.321 0.613-0.342 0.41-0.513 0.956-0.513 1.64v3.641h-1.358v-5.374c0-0.183-4e-3 -0.42-0.015-0.708-0.01-0.289-0.022-0.544-0.045-0.766h1.283z" fill="#1B171B"/>


	<path d="m100.54 6.537c0 0.251-0.09 0.458-0.266 0.621-0.179 0.164-0.392 0.246-0.638 0.246-0.25 0-0.459-0.084-0.633-0.253-0.17-0.168-0.258-0.373-0.258-0.614 0-0.25 0.088-0.46 0.258-0.628 0.174-0.169 0.383-0.253 0.633-0.253 0.246 0 0.459 0.084 0.638 0.253 0.176 0.168 0.266 0.378 0.266 0.628m-0.217 9.318h-1.357v-6.848h1.357v6.848z" fill="#1B171B"/>


	<polygon points="105.91 15.855 104.44 15.855 101.65 9.007 103.15 9.007 105.16 14.396 105.19 14.396 107.21 9.007 108.65 9.007" fill="#1B171B"/>


	<path d="m116.37 12.374v0.231l-0.016 0.231h-5.445c0.01 0.288 0.074 0.558 0.195 0.811s0.28 0.473 0.483 0.66c0.201 0.187 0.437 0.333 0.701 0.438s0.545 0.157 0.844 0.157c0.461 0 0.863-0.101 1.199-0.303s0.603-0.448 0.795-0.737l0.953 0.766c-0.367 0.485-0.798 0.842-1.293 1.072-0.496 0.229-1.048 0.344-1.654 0.344-0.521 0-1.002-0.087-1.442-0.26-0.443-0.174-0.824-0.417-1.144-0.73s-0.567-0.691-0.75-1.134c-0.187-0.443-0.274-0.934-0.274-1.474 0-0.529 0.088-1.018 0.268-1.466s0.428-0.831 0.746-1.148c0.318-0.319 0.695-0.566 1.129-0.744 0.434-0.179 0.902-0.268 1.402-0.268 0.502 0 0.959 0.082 1.369 0.246 0.409 0.164 0.758 0.399 1.043 0.708 0.282 0.308 0.504 0.681 0.657 1.12 0.156 0.438 0.234 0.931 0.234 1.48m-1.388-0.549c-8e-3 -0.27-0.055-0.522-0.137-0.758-0.082-0.237-0.201-0.441-0.361-0.614-0.157-0.174-0.354-0.311-0.592-0.412-0.236-0.101-0.512-0.152-0.83-0.152-0.289 0-0.561 0.051-0.815 0.152-0.257 0.101-0.478 0.238-0.664 0.412-0.188 0.173-0.343 0.377-0.461 0.614-0.121 0.236-0.191 0.488-0.211 0.758h4.071z" fill="#1B171B"/>


	<path d="m118.23 9.773c-0.01-0.289-0.022-0.544-0.043-0.766h1.287c0.019 0.174 0.033 0.374 0.043 0.6 8e-3 0.226 0.014 0.411 0.014 0.556h0.044c0.192-0.404 0.475-0.73 0.846-0.975 0.371-0.246 0.787-0.369 1.25-0.369 0.211 0 0.39 0.02 0.533 0.058l-0.06 1.257c-0.19-0.048-0.397-0.072-0.619-0.072-0.328 0-0.612 0.06-0.854 0.181-0.242 0.12-0.441 0.281-0.6 0.484-0.158 0.202-0.275 0.435-0.354 0.7-0.077 0.265-0.114 0.542-0.114 0.831v3.597h-1.357v-5.374c-1e-3 -0.183-5e-3 -0.419-0.016-0.708" fill="#1B171B"/>


	<path d="m127.17 10.741c-0.154-0.25-0.371-0.455-0.65-0.614-0.278-0.159-0.592-0.238-0.938-0.238-0.154 0-0.309 0.017-0.463 0.05-0.154 0.034-0.291 0.087-0.412 0.159-0.119 0.072-0.217 0.164-0.289 0.275-0.072 0.11-0.107 0.248-0.107 0.411 0 0.289 0.129 0.504 0.392 0.643 0.26 0.14 0.647 0.268 1.17 0.383 0.325 0.077 0.629 0.169 0.91 0.275 0.276 0.105 0.521 0.238 0.729 0.396 0.207 0.159 0.367 0.349 0.484 0.571 0.114 0.221 0.174 0.481 0.174 0.78 0 0.404-0.078 0.746-0.231 1.026-0.154 0.279-0.359 0.508-0.613 0.686-0.256 0.178-0.547 0.306-0.875 0.382-0.326 0.077-0.662 0.116-1.012 0.116-0.521 0-1.027-0.101-1.521-0.303-0.496-0.203-0.908-0.511-1.234-0.925l0.967-0.824c0.185 0.27 0.437 0.497 0.759 0.68 0.321 0.183 0.676 0.274 1.062 0.274 0.172 0 0.338-0.016 0.498-0.05 0.158-0.034 0.303-0.09 0.432-0.167 0.131-0.076 0.234-0.178 0.312-0.303 0.076-0.125 0.113-0.284 0.113-0.477 0-0.318-0.15-0.553-0.453-0.708-0.305-0.154-0.75-0.298-1.336-0.433-0.23-0.058-0.467-0.128-0.701-0.209-0.236-0.082-0.449-0.196-0.643-0.34-0.191-0.145-0.351-0.325-0.472-0.542-0.118-0.216-0.18-0.484-0.18-0.801 0-0.366 0.073-0.682 0.226-0.947 0.147-0.264 0.344-0.481 0.584-0.65 0.241-0.168 0.516-0.293 0.823-0.375s0.625-0.123 0.953-0.123c0.49 0 0.965 0.096 1.422 0.289s0.812 0.472 1.062 0.838l-0.942 0.795z" fill="#1B171B"/>


	<path d="m131.47 6.537c0 0.251-0.088 0.458-0.264 0.621-0.178 0.164-0.389 0.246-0.639 0.246-0.248 0-0.457-0.084-0.629-0.253-0.174-0.168-0.26-0.373-0.26-0.614 0-0.25 0.086-0.46 0.26-0.628 0.172-0.169 0.381-0.253 0.629-0.253 0.25 0 0.461 0.084 0.639 0.253 0.176 0.168 0.264 0.378 0.264 0.628m-0.217 9.318h-1.357v-6.848h1.357v6.848z" fill="#1B171B"/>


	<path d="m136.98 10.12h-1.819v3.557c0 0.413 0.075 0.709 0.231 0.886 0.152 0.178 0.398 0.267 0.734 0.267 0.127 0 0.262-0.013 0.404-0.04 0.145-0.026 0.277-0.066 0.391-0.119l0.043 1.112c-0.162 0.058-0.344 0.103-0.541 0.137s-0.4 0.051-0.613 0.051c-0.646 0-1.139-0.178-1.479-0.535-0.343-0.356-0.515-0.89-0.515-1.603v-3.713h-1.313v-1.112h1.313v-1.965h1.345v1.965h1.819v1.112z" fill="#1B171B"/>


	<path d="m144.78 12.374v0.231l-0.015 0.231h-5.444c8e-3 0.288 0.074 0.557 0.194 0.811 0.119 0.253 0.279 0.473 0.482 0.66 0.2 0.187 0.438 0.333 0.7 0.438 0.264 0.105 0.548 0.157 0.845 0.157 0.463 0 0.862-0.101 1.198-0.303 0.339-0.202 0.604-0.448 0.796-0.737l0.952 0.766c-0.364 0.485-0.797 0.842-1.291 1.072-0.498 0.229-1.049 0.344-1.655 0.344-0.521 0-1.002-0.087-1.44-0.26-0.445-0.174-0.824-0.417-1.144-0.73s-0.568-0.691-0.75-1.134c-0.187-0.443-0.274-0.934-0.274-1.474 0-0.529 0.088-1.018 0.268-1.466 0.178-0.448 0.426-0.83 0.746-1.149 0.317-0.317 0.695-0.565 1.129-0.743 0.434-0.179 0.902-0.268 1.404-0.268 0.5 0 0.957 0.082 1.366 0.246 0.408 0.164 0.759 0.4 1.044 0.708 0.282 0.308 0.504 0.681 0.655 1.119 0.158 0.439 0.234 0.932 0.234 1.481m-1.386-0.549c-0.01-0.269-0.057-0.522-0.139-0.758-0.08-0.236-0.199-0.441-0.359-0.614-0.16-0.174-0.356-0.311-0.592-0.412s-0.514-0.151-0.83-0.151c-0.289 0-0.561 0.05-0.816 0.151s-0.477 0.238-0.663 0.412c-0.189 0.173-0.343 0.378-0.464 0.614s-0.19 0.489-0.209 0.758h4.072zm-1.526-4.117h-1.111l1.443-2.081h1.631l-1.963 2.081z" fill="#1B171B"/>


	<path d="m84.214 30.956h-4.207v-10.497h4.207c0.4 0 0.819 0.042 1.241 0.125 0.426 0.085 0.818 0.231 1.168 0.435 0.354 0.208 0.646 0.491 0.869 0.846 0.225 0.358 0.338 0.813 0.338 1.356 0 0.598-0.166 1.102-0.492 1.494-0.246 0.297-0.553 0.531-0.916 0.703 0.164 0.049 0.324 0.113 0.477 0.19 0.271 0.138 0.504 0.313 0.701 0.526 0.197 0.214 0.357 0.466 0.476 0.748 0.114 0.285 0.176 0.609 0.176 0.961 0 0.58-0.119 1.078-0.353 1.478-0.229 0.396-0.541 0.721-0.924 0.963-0.379 0.238-0.812 0.412-1.293 0.516-0.475 0.102-0.97 0.156-1.468 0.156m-1.555-2.263h1.253c0.186 0 0.38-0.018 0.578-0.049 0.191-0.031 0.367-0.088 0.523-0.168 0.148-0.076 0.271-0.186 0.361-0.322 0.09-0.137 0.137-0.317 0.137-0.541 0-0.372-0.133-0.62-0.404-0.762-0.296-0.153-0.706-0.229-1.208-0.229h-1.239l-1e-3 2.071zm0-4.16h1.194c0.432 0 0.767-0.086 0.998-0.256 0.221-0.162 0.329-0.399 0.329-0.724 0-0.299-0.109-0.508-0.333-0.643-0.244-0.146-0.615-0.219-1.108-0.219h-1.08v1.842z" fill="#1B171B"/>


	<path d="m94.83 31.229c-0.811 0-1.572-0.135-2.264-0.397-0.693-0.267-1.303-0.647-1.808-1.136-0.508-0.485-0.907-1.079-1.192-1.764-0.285-0.683-0.43-1.445-0.43-2.27 0-0.832 0.145-1.596 0.43-2.268 0.285-0.676 0.688-1.257 1.192-1.73 0.507-0.471 1.113-0.839 1.81-1.096 0.688-0.255 1.451-0.384 2.262-0.384 0.812 0 1.576 0.129 2.271 0.384 0.696 0.255 1.307 0.624 1.813 1.096 0.506 0.474 0.91 1.055 1.194 1.729 0.285 0.674 0.431 1.438 0.431 2.27 0 0.823-0.146 1.587-0.431 2.269-0.284 0.686-0.688 1.278-1.192 1.766-0.508 0.486-1.119 0.869-1.813 1.135-0.697 0.263-1.46 0.396-2.273 0.396m0-8.552c-0.412 0-0.791 0.076-1.129 0.227s-0.635 0.36-0.881 0.621c-0.246 0.258-0.439 0.576-0.572 0.942-0.133 0.37-0.201 0.772-0.201 1.196 0 0.444 0.07 0.858 0.207 1.231 0.141 0.373 0.334 0.695 0.574 0.961 0.24 0.265 0.535 0.474 0.873 0.625 0.676 0.302 1.586 0.302 2.26 0 0.338-0.151 0.635-0.36 0.881-0.627 0.246-0.264 0.441-0.586 0.578-0.959 0.141-0.371 0.209-0.787 0.209-1.231 0-0.426-0.068-0.827-0.209-1.194-0.137-0.366-0.328-0.687-0.57-0.946s-0.539-0.469-0.881-0.619c-0.344-0.15-0.727-0.227-1.139-0.227" fill="#1B171B"/>


	<path d="m110.64 30.954h-3.205l-2.221-4.06h-0.629v4.06h-2.68v-10.495h4.033c0.498 0 0.992 0.051 1.465 0.154 0.481 0.104 0.92 0.283 1.303 0.532 0.387 0.251 0.699 0.588 0.932 1 0.23 0.414 0.35 0.932 0.35 1.539 0 0.721-0.198 1.338-0.594 1.831-0.358 0.452-0.85 0.79-1.461 1.002l2.707 4.437zm-6.069-6.117h1.041c0.195 0 0.4-0.018 0.604-0.049 0.199-0.032 0.381-0.088 0.541-0.168 0.154-0.078 0.279-0.188 0.379-0.332 0.094-0.139 0.143-0.328 0.143-0.561 0-0.211-0.043-0.383-0.129-0.51-0.09-0.131-0.2-0.23-0.342-0.303-0.146-0.074-0.313-0.127-0.496-0.152-0.192-0.027-0.379-0.043-0.553-0.043h-1.188v2.118z" fill="#1B171B"/>


	<path d="m115.43 30.956h-3.947v-10.497h3.832c0.729 0 1.459 0.086 2.17 0.257 0.718 0.172 1.363 0.461 1.925 0.858 0.562 0.401 1.022 0.945 1.368 1.616 0.347 0.672 0.521 1.509 0.521 2.488 0 0.912-0.174 1.712-0.514 2.38-0.34 0.662-0.795 1.217-1.352 1.646-0.558 0.428-1.189 0.746-1.888 0.947-0.689 0.203-1.404 0.305-2.115 0.305m-1.268-2.406h1.037c0.428 0 0.848-0.051 1.246-0.147 0.391-0.096 0.738-0.256 1.035-0.478 0.295-0.217 0.533-0.512 0.711-0.875 0.178-0.364 0.268-0.825 0.268-1.371 0-0.555-0.09-1.018-0.268-1.379-0.178-0.358-0.414-0.647-0.709-0.86-0.299-0.215-0.642-0.37-1.021-0.462-0.389-0.094-0.793-0.141-1.203-0.141h-1.096v5.713z" fill="#1B171B"/>


	<polygon points="130.06 30.955 122.66 30.955 122.66 20.459 129.8 20.459 129.8 22.808 125.31 22.808 125.31 24.476 129.56 24.476 129.56 26.723 125.31 26.723 125.31 28.578 130.06 28.578" fill="#1B171B"/>


	<path d="m141.44 30.956h-3.035l-0.793-2.009h-3.774l-0.75 2.009h-2.979l4.399-10.497h2.576l0.035 0.082 4.321 10.415zm-6.797-4.256h2.189l-1.082-2.988-1.107 2.988z" fill="#1B171B"/>


	<path d="m146.09 31.229c-0.688 0-1.314-0.104-1.865-0.312-0.553-0.205-1.029-0.5-1.418-0.873s-0.69-0.828-0.899-1.349c-0.207-0.516-0.312-1.1-0.312-1.731v-6.504h2.723v6.304c0 0.266 0.033 0.521 0.104 0.756 0.068 0.235 0.173 0.446 0.31 0.629 0.137 0.18 0.317 0.324 0.543 0.43 0.229 0.105 0.506 0.16 0.832 0.16 0.324 0 0.604-0.055 0.83-0.16 0.227-0.105 0.412-0.252 0.551-0.432 0.145-0.185 0.248-0.394 0.309-0.625 0.064-0.238 0.098-0.496 0.098-0.758v-6.304h2.738v6.504c0 0.632-0.109 1.216-0.322 1.734-0.213 0.521-0.522 0.975-0.92 1.346-0.396 0.373-0.881 0.666-1.438 0.873s-1.184 0.312-1.864 0.312" fill="#1B171B"/>


	<polygon points="161.96 30.955 158.58 30.955 156.42 27.467 154.34 30.955 151.07 30.955 154.74 25.42 151.35 20.459 154.66 20.459 156.49 23.511 158.29 20.459 161.49 20.459 158.17 25.418" fill="#1B171B"/>


	<polygon points="91.977 45.921 89.279 45.921 89.334 39.195 86.865 45.921 84.945 45.921 82.548 39.214 82.602 45.921 80.007 45.921 80.007 35.425 83.75 35.425 86.012 41.792 88.174 35.425 91.977 35.425" fill="#1B171B"/>


	<path d="m99.02 46.193c-0.811 0-1.571-0.135-2.264-0.397-0.693-0.267-1.301-0.646-1.809-1.133-0.508-0.488-0.908-1.082-1.193-1.767-0.283-0.68-0.428-1.442-0.428-2.269 0-0.835 0.145-1.599 0.428-2.269 0.287-0.674 0.688-1.256 1.195-1.729s1.115-0.841 1.807-1.097c0.691-0.254 1.453-0.385 2.264-0.385 0.812 0 1.574 0.131 2.271 0.385 0.698 0.256 1.31 0.625 1.815 1.097 0.506 0.474 0.908 1.054 1.193 1.729 0.285 0.674 0.43 1.437 0.43 2.269 0 0.823-0.145 1.586-0.43 2.269-0.285 0.686-0.686 1.277-1.193 1.767-0.506 0.485-1.114 0.866-1.813 1.133-0.699 0.265-1.463 0.397-2.273 0.397m0-8.548c-0.412 0-0.793 0.076-1.131 0.227s-0.635 0.359-0.881 0.619c-0.246 0.261-0.439 0.578-0.57 0.943-0.135 0.365-0.201 0.77-0.201 1.195 0 0.444 0.068 0.857 0.209 1.23 0.138 0.375 0.33 0.697 0.572 0.961 0.24 0.267 0.533 0.477 0.871 0.625 0.674 0.303 1.582 0.304 2.262 0 0.339-0.148 0.634-0.36 0.882-0.625 0.245-0.266 0.44-0.588 0.577-0.961 0.14-0.373 0.209-0.786 0.209-1.23 0-0.425-0.069-0.827-0.209-1.193-0.137-0.367-0.33-0.686-0.571-0.947-0.242-0.26-0.537-0.467-0.881-0.617-0.342-0.151-0.726-0.227-1.138-0.227" fill="#1B171B"/>


	<polygon points="115.66 45.921 112.65 45.921 108.7 39.507 108.76 45.921 106.09 45.921 106.09 35.425 109.12 35.425 113.05 41.825 113 35.425 115.66 35.425" fill="#1B171B"/>


	<polygon points="122.15 45.921 119.41 45.921 119.41 37.802 116.52 37.802 116.52 35.425 125.04 35.425 125.04 37.802 122.15 37.802" fill="#1B171B"/>


	<path d="m135.04 45.921h-3.033l-0.795-2.008h-3.773l-0.752 2.008h-2.979l4.399-10.496h2.578l0.033 0.082 4.322 10.414zm-6.797-4.256h2.189l-1.084-2.987-1.105 2.987z" fill="#1B171B"/>


	<rect x="135.56" y="35.425" width="2.752" height="10.496" fill="#1B171B"/>


	<path d="m145.43 46.182c-0.83 0-1.607-0.136-2.307-0.398-0.703-0.266-1.314-0.645-1.822-1.127s-0.908-1.068-1.193-1.742c-0.285-0.672-0.43-1.432-0.43-2.254 0-0.834 0.146-1.602 0.438-2.279 0.289-0.676 0.695-1.262 1.207-1.74 0.513-0.479 1.119-0.85 1.81-1.104 0.687-0.254 1.437-0.384 2.228-0.384 0.819 0 1.594 0.125 2.299 0.375 0.707 0.25 1.291 0.595 1.736 1.021l0.094 0.088-1.746 1.988-0.1-0.115c-0.228-0.262-0.531-0.481-0.908-0.651-0.375-0.17-0.81-0.256-1.287-0.256-0.414 0-0.799 0.075-1.146 0.229-0.348 0.15-0.652 0.363-0.91 0.633-0.256 0.271-0.457 0.596-0.6 0.967-0.143 0.373-0.215 0.787-0.215 1.232 0 0.455 0.066 0.879 0.195 1.256 0.127 0.375 0.317 0.703 0.569 0.971 0.25 0.269 0.563 0.48 0.937 0.633 0.371 0.151 0.803 0.228 1.285 0.228 0.28 0 0.551-0.021 0.803-0.062 0.215-0.037 0.42-0.092 0.609-0.166v-1.645h-1.949v-2.262h4.481v5.633l-0.069 0.037c-0.509 0.264-1.107 0.479-1.785 0.646-0.68 0.166-1.429 0.248-2.224 0.248" fill="#1B171B"/>


	<polygon points="160.83 45.921 157.82 45.921 153.87 39.507 153.92 45.921 151.26 45.921 151.26 35.425 154.28 35.425 158.22 41.825 158.16 35.425 160.83 35.425" fill="#1B171B"/>


	<polygon points="170.07 45.921 162.67 45.921 162.67 35.425 169.81 35.425 169.81 37.773 165.32 37.773 165.32 39.439 169.56 39.439 169.56 41.688 165.32 41.688 165.32 43.544 170.07 43.544" fill="#1B171B"/>


	<path d="m2.672 49.527s3.388-27.286 27.234-45.593c0 0-1.577 24.201 8.112 32.016-5.869 7.483-9.981 13.069-9.981 13.069s-6.885-5.422-9.815-18.17c-4.181 6.297-15.55 18.678-15.55 18.678" fill="#1B171B"/>


	<path d="m54.414 4.635c7.732 0 11.991 8.255 8.625 17.653-2.822 7.885-3.082 15.155 2.945 18.101 6.032 2.944 10.621-2.947 10.621-2.947s-2.663 9.746-13.674 9.746c-10.909 0-25.123-12.041-20.774-31.227 2.098-8.234 7.147-11.326 12.257-11.326" fill="#1B171B"/>

</svg>
